<?xml version="1.0" encoding="UTF-8" standalone="no"?>
<!-- Created with Inkscape (http://www.inkscape.org/) -->

<svg
   xmlns:ns0="http://www.iki.fi/pav/software/textext/"
   xmlns:dc="http://purl.org/dc/elements/1.1/"
   xmlns:cc="http://creativecommons.org/ns#"
   xmlns:rdf="http://www.w3.org/1999/02/22-rdf-syntax-ns#"
   xmlns:svg="http://www.w3.org/2000/svg"
   xmlns="http://www.w3.org/2000/svg"
   xmlns:xlink="http://www.w3.org/1999/xlink"
   xmlns:sodipodi="http://sodipodi.sourceforge.net/DTD/sodipodi-0.dtd"
   xmlns:inkscape="http://www.inkscape.org/namespaces/inkscape"
   width="59.994698mm"
   height="60.052563mm"
   viewBox="0 0 59.994698 60.052563"
   version="1.1"
   id="svg8"
   inkscape:version="0.92.4 (5da689c313, 2019-01-14)"
   sodipodi:docname="simulation.svg">
  <defs
     id="defs2">
    <marker
       inkscape:isstock="true"
       style="overflow:visible"
       id="marker4379"
       refX="0"
       refY="0"
       orient="auto"
       inkscape:stockid="Arrow2Mend">
      <path
         transform="scale(-0.6)"
         d="M 8.7185878,4.0337352 -2.2072895,0.01601326 8.7185884,-4.0017078 c -1.7454984,2.3720609 -1.7354408,5.6174519 -6e-7,8.035443 z"
         style="fill:#000000;fill-opacity:1;fill-rule:evenodd;stroke:#000000;stroke-width:0.625;stroke-linejoin:round;stroke-opacity:1"
         id="path4377"
         inkscape:connector-curvature="0" />
    </marker>
    <marker
       inkscape:stockid="TriangleInM"
       orient="auto"
       refY="0"
       refX="0"
       id="TriangleInM"
       style="overflow:visible"
       inkscape:isstock="true">
      <path
         id="path963"
         d="M 5.77,0 -2.88,5 V -5 Z"
         style="fill:#000000;fill-opacity:1;fill-rule:evenodd;stroke:#000000;stroke-width:1.00000003pt;stroke-opacity:1"
         transform="scale(-0.4)"
         inkscape:connector-curvature="0" />
    </marker>
    <marker
       inkscape:stockid="Arrow2Lend"
       orient="auto"
       refY="0"
       refX="0"
       id="marker1501"
       style="overflow:visible"
       inkscape:isstock="true">
      <path
         id="path1499"
         style="fill:#000000;fill-opacity:1;fill-rule:evenodd;stroke:#000000;stroke-width:0.625;stroke-linejoin:round;stroke-opacity:1"
         d="M 8.7185878,4.0337352 -2.2072895,0.01601326 8.7185884,-4.0017078 c -1.7454984,2.3720609 -1.7354408,5.6174519 -6e-7,8.035443 z"
         transform="matrix(-1.1,0,0,-1.1,-1.1,0)"
         inkscape:connector-curvature="0" />
    </marker>
    <marker
       inkscape:stockid="EmptyTriangleOutL"
       orient="auto"
       refY="0"
       refX="0"
       id="EmptyTriangleOutL"
       style="overflow:visible"
       inkscape:isstock="true">
      <path
         id="path987"
         d="M 5.77,0 -2.88,5 V -5 Z"
         style="fill:#ffffff;fill-rule:evenodd;stroke:#000000;stroke-width:1.00000003pt;stroke-opacity:1"
         transform="matrix(0.8,0,0,0.8,-4.8,0)"
         inkscape:connector-curvature="0" />
    </marker>
    <marker
       inkscape:stockid="TriangleOutL"
       orient="auto"
       refY="0"
       refX="0"
       id="TriangleOutL"
       style="overflow:visible"
       inkscape:isstock="true">
      <path
         id="path969"
         d="M 5.77,0 -2.88,5 V -5 Z"
         style="fill:#000000;fill-opacity:1;fill-rule:evenodd;stroke:#000000;stroke-width:1.00000003pt;stroke-opacity:1"
         transform="scale(0.8)"
         inkscape:connector-curvature="0" />
    </marker>
    <marker
       inkscape:stockid="Arrow2Mend"
       orient="auto"
       refY="0"
       refX="0"
       id="Arrow2Mend"
       style="overflow:visible"
       inkscape:isstock="true">
      <path
         id="path854"
         style="fill:#000000;fill-opacity:1;fill-rule:evenodd;stroke:#000000;stroke-width:0.625;stroke-linejoin:round;stroke-opacity:1"
         d="M 8.7185878,4.0337352 -2.2072895,0.01601326 8.7185884,-4.0017078 c -1.7454984,2.3720609 -1.7354408,5.6174519 -6e-7,8.035443 z"
         transform="scale(-0.6)"
         inkscape:connector-curvature="0" />
    </marker>
    <marker
       inkscape:stockid="Arrow1Mend"
       orient="auto"
       refY="0"
       refX="0"
       id="Arrow1Mend"
       style="overflow:visible"
       inkscape:isstock="true">
      <path
         id="path836"
         d="M 0,0 5,-5 -12.5,0 5,5 Z"
         style="fill:#000000;fill-opacity:1;fill-rule:evenodd;stroke:#000000;stroke-width:1.00000003pt;stroke-opacity:1"
         transform="matrix(-0.4,0,0,-0.4,-4,0)"
         inkscape:connector-curvature="0" />
    </marker>
    <marker
       inkscape:stockid="Arrow1Send"
       orient="auto"
       refY="0"
       refX="0"
       id="Arrow1Send"
       style="overflow:visible"
       inkscape:isstock="true">
      <path
         id="path842"
         d="M 0,0 5,-5 -12.5,0 5,5 Z"
         style="fill:#000000;fill-opacity:1;fill-rule:evenodd;stroke:#000000;stroke-width:1.00000003pt;stroke-opacity:1"
         transform="matrix(-0.2,0,0,-0.2,-1.2,0)"
         inkscape:connector-curvature="0" />
    </marker>
    <marker
       inkscape:stockid="Arrow2Lend"
       orient="auto"
       refY="0"
       refX="0"
       id="Arrow2Lend"
       style="overflow:visible"
       inkscape:isstock="true">
      <path
         id="path848"
         style="fill:#000000;fill-opacity:1;fill-rule:evenodd;stroke:#000000;stroke-width:0.625;stroke-linejoin:round;stroke-opacity:1"
         d="M 8.7185878,4.0337352 -2.2072895,0.01601326 8.7185884,-4.0017078 c -1.7454984,2.3720609 -1.7354408,5.6174519 -6e-7,8.035443 z"
         transform="matrix(-1.1,0,0,-1.1,-1.1,0)"
         inkscape:connector-curvature="0" />
    </marker>
    <marker
       inkscape:stockid="Arrow1Lend"
       orient="auto"
       refY="0"
       refX="0"
       id="Arrow1Lend"
       style="overflow:visible"
       inkscape:isstock="true">
      <path
         id="path830"
         d="M 0,0 5,-5 -12.5,0 5,5 Z"
         style="fill:#000000;fill-opacity:1;fill-rule:evenodd;stroke:#000000;stroke-width:1.00000003pt;stroke-opacity:1"
         transform="matrix(-0.8,0,0,-0.8,-10,0)"
         inkscape:connector-curvature="0" />
    </marker>
    <marker
       inkscape:stockid="Arrow2Lstart"
       orient="auto"
       refY="0"
       refX="0"
       id="Arrow2Lstart"
       style="overflow:visible"
       inkscape:isstock="true">
      <path
         id="path845"
         style="fill:#000000;fill-opacity:1;fill-rule:evenodd;stroke:#000000;stroke-width:0.625;stroke-linejoin:round;stroke-opacity:1"
         d="M 8.7185878,4.0337352 -2.2072895,0.01601326 8.7185884,-4.0017078 c -1.7454984,2.3720609 -1.7354408,5.6174519 -6e-7,8.035443 z"
         transform="matrix(1.1,0,0,1.1,1.1,0)"
         inkscape:connector-curvature="0" />
    </marker>
    <marker
       inkscape:stockid="Arrow2Mend"
       orient="auto"
       refY="0"
       refX="0"
       id="Arrow2Mend-0"
       style="overflow:visible"
       inkscape:isstock="true">
      <path
         inkscape:connector-curvature="0"
         id="path854-1"
         style="fill:#000000;fill-opacity:1;fill-rule:evenodd;stroke:#000000;stroke-width:0.625;stroke-linejoin:round;stroke-opacity:1"
         d="M 8.7185878,4.0337352 -2.2072895,0.01601326 8.7185884,-4.0017078 c -1.7454984,2.3720609 -1.7354408,5.6174519 -6e-7,8.035443 z"
         transform="scale(-0.6)" />
    </marker>
    <marker
       inkscape:stockid="Arrow2Mend"
       orient="auto"
       refY="0"
       refX="0"
       id="Arrow2Mend-0-8"
       style="overflow:visible"
       inkscape:isstock="true">
      <path
         inkscape:connector-curvature="0"
         id="path854-1-8"
         style="fill:#000000;fill-opacity:1;fill-rule:evenodd;stroke:#000000;stroke-width:0.625;stroke-linejoin:round;stroke-opacity:1"
         d="M 8.7185878,4.0337352 -2.2072895,0.01601326 8.7185884,-4.0017078 c -1.7454984,2.3720609 -1.7354408,5.6174519 -6e-7,8.035443 z"
         transform="scale(-0.6)" />
    </marker>
    <marker
       inkscape:stockid="Arrow2Mend"
       orient="auto"
       refY="0"
       refX="0"
       id="Arrow2Mend-0-3"
       style="overflow:visible"
       inkscape:isstock="true">
      <path
         inkscape:connector-curvature="0"
         id="path854-1-5"
         style="fill:#000000;fill-opacity:1;fill-rule:evenodd;stroke:#000000;stroke-width:0.625;stroke-linejoin:round;stroke-opacity:1"
         d="M 8.7185878,4.0337352 -2.2072895,0.01601326 8.7185884,-4.0017078 c -1.7454984,2.3720609 -1.7354408,5.6174519 -6e-7,8.035443 z"
         transform="scale(-0.6)" />
    </marker>
    <marker
       inkscape:stockid="Arrow2Mend"
       orient="auto"
       refY="0"
       refX="0"
       id="marker1431-3"
       style="overflow:visible"
       inkscape:isstock="true">
      <path
         inkscape:connector-curvature="0"
         id="path1429-8"
         style="fill:#000000;fill-opacity:1;fill-rule:evenodd;stroke:#000000;stroke-width:0.625;stroke-linejoin:round;stroke-opacity:1"
         d="M 8.7185878,4.0337352 -2.2072895,0.01601326 8.7185884,-4.0017078 c -1.7454984,2.3720609 -1.7354408,5.6174519 -6e-7,8.035443 z"
         transform="scale(-0.6)" />
    </marker>
    <marker
       inkscape:isstock="true"
       style="overflow:visible"
       id="marker4379-3"
       refX="0"
       refY="0"
       orient="auto"
       inkscape:stockid="Arrow2Mend">
      <path
         inkscape:connector-curvature="0"
         transform="scale(-0.6)"
         d="M 8.7185878,4.0337352 -2.2072895,0.01601326 8.7185884,-4.0017078 c -1.7454984,2.3720609 -1.7354408,5.6174519 -6e-7,8.035443 z"
         style="fill:#000000;fill-opacity:1;fill-rule:evenodd;stroke:#000000;stroke-width:0.625;stroke-linejoin:round;stroke-opacity:1"
         id="path4377-4" />
    </marker>
    <path
       d="m 21,287 q 0,14 15,48 15,34 48,71 33,37 74,36 41,0 66,-23 25,-23 26,-64 -2,-19 -3,-21 0,-3 -16,-46 -16,-43 -33,-97 -17,-54 -16,-86 0,-43 14,-60 14,-17 42,-18 23,0 43,11 20,11 31,23 11,12 27,33 0,1 5,20 5,19 14,59 9,40 19,74 38,150 42,157 13,27 43,27 13,0 21,-7 8,-7 11,-12 3,-5 2,-9 0,-13 -49,-210 -49,-197 -56,-216 -28,-83 -97,-132 -69,-49 -138,-50 -45,0 -79,22 -34,22 -34,66 0,22 7,37 7,15 19,22 12,7 20,10 8,3 17,3 44,0 44,-42 0,-20 -12,-35 -12,-15 -23,-20 -11,-5 -13,-5 l -3,-1 q 2,-5 19,-12 17,-7 34,-7 h 8 q 17,0 26,2 33,9 61,38 28,29 43,62 15,33 23,56 8,23 8,30 l -6,-4 q -6,-4 -19,-11 -13,-7 -26,-12 -20,-5 -39,-5 -46,0 -81,22 -35,22 -46,71 -1,7 -1,31 0,57 35,149 35,92 35,117 0,1 0,2 0,9 0,12 0,3 -4,7 -4,4 -11,4 h -4 Q 131,404 112,385 93,366 82,344 71,322 65,302 59,282 57,280 55,278 41,278 H 27 q -6,6 -6,9 z"
       id="E1-MJMATHI-79"
       inkscape:connector-curvature="0"
       style="stroke-width:1" />
    <path
       d="m 21,287 q 1,6 3,16 2,10 12,38 10,28 20,47 10,19 33,37 23,18 46,17 36,0 60,-18 24,-18 30,-34 6,-16 6,-21 0,-2 1,-2 l 11,11 q 61,64 139,64 54,0 87,-27 33,-27 34,-79 1,-52 -38,-157 -39,-105 -38,-127 0,-26 17,-26 6,0 9,1 29,5 52,38 23,33 35,80 2,8 20,8 20,0 20,-8 0,-1 -4,-15 -8,-29 -22,-57 -14,-28 -46,-56 -32,-28 -69,-27 -47,0 -68,27 -21,27 -21,56 0,19 36,120 36,101 37,152 0,59 -44,59 h -5 Q 288,404 229,303 L 222,291 189,157 Q 156,26 151,16 138,-11 108,-11 95,-11 87,-5 79,1 76,7 q -3,6 -2,10 0,13 38,163 38,150 40,163 1,5 1,23 0,39 -24,39 -38,0 -63,-100 -6,-20 -6,-21 -2,-6 -19,-6 H 27 q -6,6 -6,9 z"
       id="E1-MJMATHI-6E"
       inkscape:connector-curvature="0"
       style="stroke-width:1" />
    <path
       d="m 56,237 q 0,0 0,13 0,13 14,20 h 299 v 150 l 1,150 q 10,13 19,13 13,0 20,-15 V 270 h 298 q 15,-8 15,-20 0,-12 -15,-20 H 409 V -68 q -8,-14 -18,-14 h -2 -2 q -12,0 -18,14 V 230 H 70 q -14,7 -14,20 z"
       id="E1-MJMAIN-2B"
       inkscape:connector-curvature="0"
       style="stroke-width:1" />
    <path
       d="m 213,578 -13,-5 q -14,-5 -40,-10 -26,-5 -58,-7 H 83 v 46 h 19 q 47,2 87,15 40,13 56,24 16,11 28,22 2,3 12,3 9,0 17,-6 V 361 l 1,-300 q 7,-7 12,-9 5,-2 24,-4 19,-2 62,-2 h 26 V 0 H 416 Q 395,3 257,3 121,3 100,0 H 88 v 46 h 26 q 22,0 38,0 16,0 25,1 9,1 16,3 7,2 8,2 1,0 6,5 5,5 6,4 z"
       id="E1-MJMAIN-31"
       inkscape:connector-curvature="0"
       style="stroke-width:1" />
    <path
       d="m 56,347 q 0,13 14,20 h 637 q 15,-8 15,-20 0,-11 -14,-19 L 390,327 H 72 q -16,5 -16,20 z m 0,-194 q 0,15 16,20 h 636 q 14,-10 14,-20 0,-13 -15,-20 H 70 q -14,7 -14,20 z"
       id="E1-MJMAIN-3D"
       inkscape:connector-curvature="0"
       style="stroke-width:1" />
    <path
       d="m 137,683 q 1,0 72,5 71,5 73,6 12,0 12,-9 0,-11 -36,-151 -38,-148 -38,-151 0,-2 7,5 61,54 130,54 54,0 87,-27 33,-27 34,-79 0,-51 -38,-158 -38,-107 -38,-128 1,-14 5,-19 4,-5 15,-5 28,0 52,30 24,30 39,82 3,11 6,13 3,2 16,2 20,0 20,-8 0,-1 -4,-15 -16,-59 -51,-97 -34,-43 -81,-43 h -5 q -47,0 -68,27 -21,27 -21,57 0,16 36,118 36,102 37,153 0,59 -44,59 h -5 q -83,0 -144,-98 L 198,293 164,158 Q 132,28 127,16 114,-11 83,-11 69,-11 59,-2 49,7 48,16 q 0,14 73,304 l 74,296 q 0,13 -7,16 -7,3 -39,5 h -21 q -6,6 -6,8 0,2 2,19 5,19 13,19 z"
       id="E1-MJMATHI-68"
       inkscape:connector-curvature="0"
       style="stroke-width:1" />
    <path
       d="m 60,948 q 3,2 605,2 h 602 l 58,-135 q 59,-138 63,-146 h -40 l -7,14 q -21,41 -56,78 -50,48 -111,77 -61,29 -141,43 -80,14 -151,17 -71,3 -183,4 H 574 543 251 l 8,-11 q 463,-633 465,-639 1,-2 0,-6 -3,-3 -264,-302 L 196,-356 q 0,-1 211,-1 52,0 141,0 89,0 128,-1 136,0 220,5 84,5 167,21 83,16 141,49 58,33 103,87 21,26 41,72 h 40 q 0,-1 -7,-21 -7,-20 -25,-65 -18,-45 -31,-84 l -58,-155 -601,-1 q -602,0 -605,2 -6,2 -6,9 0,2 2,6 l 533,610 q 0,1 -33,45 -33,44 -105,144 -72,100 -130,178 L 56,909 55,924 q 0,21 5,24 z"
       id="E1-MJSZ2-2211"
       inkscape:connector-curvature="0"
       style="stroke-width:1" />
    <path
       d="m 297,596 q 0,31 21,48 21,17 43,17 17,0 28,-10 11,-10 14,-28 0,-28 -19,-47 -19,-19 -44,-19 -18,0 -30,10 -12,10 -13,29 z m -9,-220 q 0,29 -26,29 -22,0 -42,-12 -20,-12 -35,-31 -15,-19 -24,-37 -9,-18 -17,-32 l -7,-14 q -2,-1 -16,-1 h -14 q -6,6 -6,8 0,2 4,13 21,49 59,92 38,43 88,50 1,0 8,0 7,0 12,1 24,-1 44,-10 25,-14 38,-31 13,-17 13,-53 V 332 L 318,133 q -51,-200 -54,-208 -18,-50 -70,-89 -52,-39 -119,-40 -50,0 -68,21 -18,21 -19,46 0,27 19,46 19,19 46,20 17,0 29,-10 12,-10 13,-31 0,-36 -32,-55 6,-1 14,-1 34,0 62,28 28,28 43,66 l 11,42 q 11,43 26,104 15,61 32,125 17,64 27,111 10,47 11,57 0,7 -1,11 z"
       id="E1-MJMATHI-6A"
       inkscape:connector-curvature="0"
       style="stroke-width:1" />
    <path
       d="m 131,289 q 0,32 16,65 16,33 56,61 40,28 97,27 62,0 90,-27 28,-27 29,-60 0,-32 -17,-47 -17,-15 -38,-16 -13,0 -24,8 -11,8 -12,26 0,16 9,28 9,12 17,18 8,6 13,6 1,0 1,1 0,3 -7,9 -7,6 -25,11 -18,5 -39,6 -48,0 -70,-26 -22,-26 -23,-53 0,-25 19,-35 19,-10 55,-17 36,-7 52,-15 66,-29 66,-96 0,-28 -11,-56 Q 374,79 352,51 330,23 289,7 248,-9 195,-10 118,-10 86,19 54,48 53,87 q 0,39 21,56 21,17 44,17 15,0 28,-9 13,-9 14,-31 0,-26 -18,-44 -18,-18 -31,-18 -2,-1 -3,-1 -1,0 -1,-2 1,-3 8,-8 7,-5 31,-13 24,-8 55,-7 36,0 62,11 26,11 38,28 12,17 17,31 5,14 5,25 0,28 -21,42 -21,14 -48,17 -27,3 -59,15 -32,12 -47,35 -17,25 -17,58 z"
       id="E1-MJMATHI-73"
       inkscape:connector-curvature="0"
       style="stroke-width:1" />
    <path
       d="m 73,647 q 0,10 4,23 4,13 12,13 1,0 72,5 71,5 73,6 12,0 12,-9 0,-9 -34,-143 -8,-34 -17,-70 -9,-36 -15,-54 l -4,-19 q 0,-3 6,3 49,40 101,40 62,0 100,-46 38,-46 39,-116 Q 422,169 343,79 264,-11 173,-11 123,-11 82,27 41,65 40,150 v 9 q 0,21 8,58 8,37 49,197 50,197 50,209 0,12 -38,14 -5,0 -8,0 h -5 q -10,0 -13,0 -3,0 -7,3 -4,3 -3,7 z M 336,325 v 6 q 0,74 -61,74 -17,0 -35,-8 -18,-8 -33,-21 -15,-13 -26,-24 -11,-11 -18,-22 l -6,-8 -21,-86 q -22,-86 -22,-122 0,-48 24,-72 16,-16 40,-16 33,0 67,32 25,23 40,56 15,33 33,105 18,72 18,106 z"
       id="E1-MJMATHI-62"
       inkscape:connector-curvature="0"
       style="stroke-width:1" />
    <path
       d="m 121,647 q 0,10 4,23 4,13 12,13 1,0 72,5 71,5 73,6 12,0 12,-8 0,-7 -50,-209 -50,-198 -50,-205 19,10 29,19 24,18 69,63 45,45 70,61 40,27 76,27 30,0 47,-19 17,-19 18,-54 0,-25 -7,-42 -7,-17 -19,-25 -12,-8 -21,-11 -9,-3 -18,-3 -20,0 -32,11 -12,11 -12,29 0,25 16,41 16,16 32,21 l 16,3 q -12,12 -24,12 h -4 q -32,-3 -63,-25 -31,-22 -73,-64 -42,-42 -66,-61 2,-1 15,-3 13,-2 24,-6 11,-4 26,-8 15,-4 27,-14 12,-10 22,-18 10,-8 17,-26 7,-18 6,-33 0,-17 -5,-41 -5,-24 -6,-40 0,-40 27,-40 48,0 78,119 2,8 20,8 h 4 q 16,0 16,-9 0,-5 -3,-14 -41,-141 -118,-141 -45,0 -73,26 -28,26 -28,75 0,18 3,31 3,13 3,24 0,22 -14,38 -14,16 -35,23 -21,7 -34,11 -13,4 -18,3 h -2 q -12,-42 -21,-81 -9,-39 -14,-58 -5,-19 -9,-37 -4,-18 -7,-24 -3,-6 -7,-13 -4,-7 -11,-9 -13,-9 -28,-9 -17,0 -26,10 -9,10 -9,17 0,10 37,160 37,150 73,295 l 37,145 q 1,13 -7,16 -8,3 -39,5 h -5 q -10,0 -13,0 -3,0 -7,3 -4,3 -3,7 z"
       id="E1-MJMATHI-6B"
       inkscape:connector-curvature="0"
       style="stroke-width:1" />
    <path
       d="m 78,60 q 0,24 17,42 17,18 43,18 24,0 42,-16 Q 198,88 199,61 199,36 182,18 165,0 139,0 113,0 96,17 79,34 78,60 Z"
       id="E1-MJMAIN-2E"
       inkscape:connector-curvature="0"
       style="stroke-width:1" />
  </defs>
  <sodipodi:namedview
     id="base"
     pagecolor="#ffffff"
     bordercolor="#666666"
     borderopacity="1.0"
     inkscape:pageopacity="0.0"
     inkscape:pageshadow="2"
     inkscape:zoom="2"
     inkscape:cx="140.87356"
     inkscape:cy="147.33245"
     inkscape:document-units="mm"
     inkscape:current-layer="g1172"
     showgrid="false"
     inkscape:window-width="1920"
     inkscape:window-height="1027"
     inkscape:window-x="-8"
     inkscape:window-y="-8"
     inkscape:window-maximized="1" />
  <metadata
     id="metadata5">
    <rdf:RDF>
      <cc:Work
         rdf:about="">
        <dc:format>image/svg+xml</dc:format>
        <dc:type
           rdf:resource="http://purl.org/dc/dcmitype/StillImage" />
        <dc:title />
      </cc:Work>
    </rdf:RDF>
  </metadata>
  <g
     inkscape:label="Ebene 1"
     inkscape:groupmode="layer"
     id="layer1"
     transform="translate(-3.309943,-236.94988)">
    <g
       id="g8529"
       transform="matrix(0.26458333,0,0,0.26458333,64.955208,241.04063)">
      <g
         transform="translate(0,-752.36218)"
         id="layer1-1"
         inkscape:label="Layer 1" />
      <g
         id="content-6"
         transform="matrix(2.0199698,0,0,-2.1207715,-731.62396,1269.4099)"
         xml:space="preserve"
         stroke-miterlimit="10.433"
         font-style="normal"
         font-variant="normal"
         font-weight="normal"
         font-stretch="normal"
         font-size-adjust="none"
         letter-spacing="normal"
         word-spacing="normal"
         ns0:text="$u = k_p (x_{ref}-x) + k_d (\\dot{x}_{ref}-\\dot{x})$"
         ns0:preamble="/home/matt/Dropbox/Writing/texTextPreamble.ini"
         style="font-style:normal;font-variant:normal;font-weight:normal;font-stretch:normal;letter-spacing:normal;word-spacing:normal;text-anchor:start;fill:none;stroke:#000000;stroke-width:0.48314846;stroke-linecap:butt;stroke-linejoin:miter;stroke-miterlimit:10.43299961;stroke-dasharray:none;stroke-dashoffset:0;stroke-opacity:1" />    </g>
    <text
       xml:space="preserve"
       style="font-style:normal;font-weight:normal;font-size:10.58333302px;line-height:1.25;font-family:sans-serif;letter-spacing:0px;word-spacing:0px;fill:#000000;fill-opacity:1;stroke:none;stroke-width:0.26458332"
       x="32.132477"
       y="280.30234"
       id="text8630"><tspan
         sodipodi:role="line"
         id="tspan8628"
         x="32.132477"
         y="289.66611"
         style="font-size:3.52777767px;stroke-width:0.26458332" /><tspan
         sodipodi:role="line"
         x="32.132477"
         y="302.89526"
         style="font-size:3.52777767px;stroke-width:0.26458332"
         id="tspan8632" /></text>
    <g
       id="g1172"
       transform="matrix(1.1998939,0,0,1.2010512,-0.65845588,-59.709785)">
      <rect
         rx="7.9207935"
         ry="7.9207926"
         y="247.24754"
         x="3.5548162"
         height="49.504951"
         width="49.504951"
         id="rect815"
         style="opacity:1;fill:none;fill-opacity:1;stroke:#000000;stroke-width:0.49504945;stroke-linecap:butt;stroke-linejoin:round;stroke-miterlimit:0.60000002;stroke-dasharray:none;stroke-opacity:1;paint-order:fill markers stroke" />
      <text
         transform="scale(1.0308254,0.9700964)"
         id="text819"
         y="263.98883"
         x="7.7711549"
         style="font-style:normal;font-weight:normal;font-size:8.66854px;line-height:1.25;font-family:sans-serif;letter-spacing:0px;word-spacing:0px;fill:#000000;fill-opacity:1;stroke:none;stroke-width:0.23289819;stroke-miterlimit:0.60000002;stroke-dasharray:none"
         xml:space="preserve"><tspan
           style="font-style:normal;font-variant:normal;font-weight:bold;font-stretch:normal;font-size:5.877316px;font-family:Arial;-inkscape-font-specification:'Arial Bold';stroke-width:0.23289819;stroke-miterlimit:0.60000002;stroke-dasharray:none"
           y="263.98883"
           x="7.7711549"
           id="tspan817"
           sodipodi:role="line">2. Simulation /</tspan></text>
      <rect
         y="266.22437"
         x="27.274052"
         height="7.1891494"
         width="9.7814856"
         id="rect821"
         style="opacity:1;fill:none;fill-opacity:0;stroke:#000000;stroke-width:0.30962291;stroke-linecap:butt;stroke-linejoin:round;stroke-miterlimit:0.60000002;stroke-dasharray:none;stroke-opacity:1;paint-order:fill markers stroke" />
      <path
         inkscape:connector-curvature="0"
         id="path825-7"
         d="m 37.028234,269.9086 c 4.76575,0 4.76575,0 4.76575,0"
         style="fill:none;stroke:#000000;stroke-width:0.23477316;stroke-linecap:butt;stroke-linejoin:miter;stroke-miterlimit:4;stroke-dasharray:none;stroke-opacity:1;marker-end:url(#Arrow2Mend-0)" />
      <text
         transform="scale(1.0004759,0.99952432)"
         id="text1980"
         y="271.28461"
         x="27.750088"
         style="font-style:normal;font-weight:normal;font-size:5.80030155px;line-height:0;font-family:sans-serif;letter-spacing:0px;word-spacing:0px;fill:#000000;fill-opacity:1;stroke:none;stroke-width:0.36251885"
         xml:space="preserve"><tspan
           style="font-style:normal;font-variant:normal;font-weight:normal;font-stretch:normal;font-size:4.83358526px;line-height:0;font-family:'Cambria Math';-inkscape-font-specification:'Cambria Math';stroke-width:0.36251885"
           y="271.28461"
           x="27.750088"
           id="tspan1978"
           sodipodi:role="line">G(s)</tspan></text>
      <text
         transform="scale(1.0004759,0.99952432)"
         id="text1984"
         y="271.64661"
         x="42.867157"
         style="font-style:normal;font-weight:normal;font-size:4.93888903px;line-height:1.25;font-family:sans-serif;letter-spacing:0px;word-spacing:0px;fill:#000000;fill-opacity:1;stroke:none;stroke-width:0.36251885"
         xml:space="preserve"><tspan
           style="font-style:normal;font-variant:normal;font-weight:normal;font-stretch:normal;font-size:4.93888903px;font-family:'Cambria Math';-inkscape-font-specification:'Cambria Math';fill:#000000;fill-opacity:1;stroke-width:0.36251885"
           y="271.64661"
           x="42.867157"
           id="tspan1982"
           sodipodi:role="line">?</tspan></text>
      <text
         transform="scale(1.0004759,0.99952432)"
         id="text1988"
         y="270.92819"
         x="18.8076"
         style="font-style:normal;font-weight:normal;font-size:14.50075817px;line-height:1.25;font-family:sans-serif;letter-spacing:0px;word-spacing:0px;fill:#000000;fill-opacity:1;stroke:none;stroke-width:0.36251885"
         xml:space="preserve"><tspan
           style="font-style:normal;font-variant:normal;font-weight:normal;font-stretch:normal;font-size:4.83358526px;font-family:'Cambria Math';-inkscape-font-specification:'Cambria Math';stroke-width:0.36251885"
           y="270.92819"
           x="18.8076"
           id="tspan1986"
           sodipodi:role="line">u</tspan></text>
      <path
         inkscape:connector-curvature="0"
         id="path825-7-0"
         d="m 22.106565,269.95313 c 4.765755,0 4.765755,0 4.765755,0"
         style="fill:none;stroke:#000000;stroke-width:0.23477317;stroke-linecap:butt;stroke-linejoin:miter;stroke-miterlimit:4;stroke-dasharray:none;stroke-opacity:1;marker-end:url(#Arrow2Mend-0-3)" />
      <path
         inkscape:connector-curvature="0"
         id="path4369"
         d="m 11.591153,288.54233 c 0,-20.4797 0,-20.48043 0,-20.48043"
         style="fill:none;stroke:#000000;stroke-width:0.31805399px;stroke-linecap:butt;stroke-linejoin:miter;stroke-opacity:1;marker-end:url(#marker4379)" />
      <path
         sodipodi:nodetypes="cc"
         inkscape:connector-curvature="0"
         id="path4369-2"
         d="m 11.421856,288.39278 32.857935,0.0384"
         style="fill:none;stroke:#000000;stroke-width:0.31805399px;stroke-linecap:butt;stroke-linejoin:miter;stroke-opacity:1;marker-end:url(#marker4379-3)" />
      <g
         style="stroke:#000000;stroke-opacity:1"
         transform="matrix(0.46642264,0,0,0.55210317,125.44205,114.14509)"
         id="g8273">
        <g
           style="stroke:#000000;stroke-opacity:1"
           inkscape:label="Layer 1"
           id="layer1-9"
           transform="translate(0,-752.36218)" />
        <g
           style="stroke:#000000;stroke-opacity:1"
           id="g4322"
           transform="matrix(1.2014387,0,0,0.76316221,44.832069,40.164973)">
          <path
             sodipodi:nodetypes="cssssscssssccscscscc"
             id="path4310"
             d="m -240.18658,323.3413 c 1.48616,4.28672 2.3067,7.82605 3.24137,13.33947 0.93464,5.51343 1.86931,11.58187 2.80397,16.74746 0.93465,5.16559 1.8693,9.42879 2.80397,12.33005 0.93465,2.90126 1.51959,4.32937 2.45424,4.82099 0.93466,0.49163 2.21902,0.0697 3.15368,-0.96126 0.93466,-1.03089 1.86933,-2.52414 2.80397,-3.97866 0.93465,-1.45453 1.86932,-2.86543 2.80398,-3.9692 0.93464,-1.10378 1.8693,-1.90317 2.80395,-2.37109 0.93466,-0.46789 1.86931,-0.61018 2.80397,-0.5406 0.93467,0.0696 1.86931,0.3458 2.80397,0.68305 0.93465,0.33725 1.86932,0.73278 2.80397,1.08189 0.93465,0.34914 1.8693,0.65154 2.80397,0.86708 0.93465,0.21554 1.86931,0.34538 2.80398,0.40096 0.93463,0.0555 1.86929,0.0384 2.80395,-0.0164 0.93467,-0.0547 1.86931,-0.14585 2.80397,-0.23925 0.93466,-0.0934 1.86932,-0.18863 2.80396,-0.26584 0.93466,-0.0772 1.86931,-0.13647 2.80398,-0.17377 0.93465,-0.0373 1.86931,-0.0529 2.80397,-0.0534 0.93465,-3.5e-4 1.8693,0.0141 2.80396,0.0342"
             style="fill:none;stroke:#000000;stroke-width:0.81332016;stroke-linecap:round;stroke-miterlimit:4;stroke-dasharray:none;stroke-dashoffset:0;stroke-opacity:1"
             inkscape:connector-curvature="0" />
        </g>
      </g>
      <path
         inkscape:connector-curvature="0"
         id="path1218"
         d="m 12.28094,273.70431 c 0,14.6513 0.001,14.65337 0.001,14.65337"
         style="fill:none;stroke:#000000;stroke-width:0.26458332px;stroke-linecap:butt;stroke-linejoin:miter;stroke-opacity:1" />
      <path
         inkscape:connector-curvature="0"
         id="path1267"
         d="m 13.924516,279.91934 c 0,8.42858 0.07016,8.42858 0.07016,8.42858 l 0.02339,0.0446 -0.04677,-0.0446"
         style="fill:none;stroke:#000000;stroke-width:0.25835392px;stroke-linecap:butt;stroke-linejoin:miter;stroke-opacity:1" />
      <path
         inkscape:connector-curvature="0"
         id="path1269"
         d="m 14.853061,283.53682 c -0.04582,4.86221 -0.02252,4.86221 -0.02252,4.86221"
         style="fill:none;stroke:#000000;stroke-width:0.26665559px;stroke-linecap:butt;stroke-linejoin:miter;stroke-opacity:1" />
      <path
         inkscape:connector-curvature="0"
         id="path1271"
         d="m 17.076513,288.40522 c 0,2.72852 0.01654,2.72852 0.01654,2.72852"
         style="fill:none;stroke:#000000;stroke-width:0.26458332px;stroke-linecap:butt;stroke-linejoin:miter;stroke-opacity:1" />
      <path
         inkscape:connector-curvature="0"
         id="path1273"
         d="m 17.97025,288.41431 c -0.02312,3.99171 0,3.99171 0,3.99171"
         style="fill:none;stroke:#000000;stroke-width:0.26756069px;stroke-linecap:butt;stroke-linejoin:miter;stroke-opacity:1" />
      <path
         inkscape:connector-curvature="0"
         id="path1275"
         d="m 18.848117,288.28644 c 0,4.18611 0.02339,4.18611 0.02339,4.18611"
         style="fill:none;stroke:#000000;stroke-width:0.26458332px;stroke-linecap:butt;stroke-linejoin:miter;stroke-opacity:1" />
      <path
         inkscape:connector-curvature="0"
         id="path1277"
         d="m 19.818085,288.39392 c 0,3.65919 -0.07077,3.65919 -0.07077,3.65919"
         style="fill:none;stroke:#000000;stroke-width:0.26278898px;stroke-linecap:butt;stroke-linejoin:miter;stroke-opacity:1" />
      <path
         inkscape:connector-curvature="0"
         id="path1279"
         d="m 20.728204,288.36912 c 0,2.6894 0.04677,2.6894 0.04677,2.6894"
         style="fill:none;stroke:#000000;stroke-width:0.26458332px;stroke-linecap:butt;stroke-linejoin:miter;stroke-opacity:1" />
      <path
         inkscape:connector-curvature="0"
         id="path1281"
         d="m 21.688696,288.32235 c 0,1.6838 0,1.6838 0,1.6838"
         style="fill:none;stroke:#000000;stroke-width:0.26458332px;stroke-linecap:butt;stroke-linejoin:miter;stroke-opacity:1" />
      <path
         inkscape:connector-curvature="0"
         id="path1299"
         d="m 24.757698,287.66108 c 0,0.76068 0,0.76068 0,0.76068"
         style="fill:none;stroke:#000000;stroke-width:0.26458332px;stroke-linecap:butt;stroke-linejoin:miter;stroke-opacity:1" />
      <path
         inkscape:connector-curvature="0"
         id="path1301"
         d="m 25.526643,287.47918 c -0.0083,0.89297 0,0.89297 0,0.89297"
         style="fill:none;stroke:#000000;stroke-width:0.26458332px;stroke-linecap:butt;stroke-linejoin:miter;stroke-opacity:1" />
      <path
         inkscape:connector-curvature="0"
         id="path1303"
         d="m 26.295589,287.47091 c 0.0083,0.92604 0,0.92604 0,0.92604"
         style="fill:none;stroke:#000000;stroke-width:0.26458332px;stroke-linecap:butt;stroke-linejoin:miter;stroke-opacity:1" />
      <path
         inkscape:connector-curvature="0"
         id="path1305"
         d="m 27.064534,287.62801 c 0,0.75241 0,0.75241 0,0.75241"
         style="fill:none;stroke:#000000;stroke-width:0.26458332px;stroke-linecap:butt;stroke-linejoin:miter;stroke-opacity:1" />
      <path
         inkscape:connector-curvature="0"
         id="path1307"
         d="m 27.883088,287.83471 c 0,0.58705 0,0.58705 0,0.58705"
         style="fill:none;stroke:#000000;stroke-width:0.26458332px;stroke-linecap:butt;stroke-linejoin:miter;stroke-opacity:1" />
      <path
         inkscape:connector-curvature="0"
         id="path1309"
         d="m 13.075281,276.35498 c 0,11.88013 0.02339,11.95485 0.02339,11.95485"
         style="fill:none;stroke:#000000;stroke-width:0.27304557px;stroke-linecap:butt;stroke-linejoin:miter;stroke-opacity:1" />
      <g
         style="fill:currentColor;stroke:currentColor;stroke-width:0"
         transform="matrix(0.00270427,0,0,-0.00308927,18.283377,281.28217)"
         aria-hidden="true"
         id="g1376">
        <use
           height="100%"
           width="100%"
           xlink:href="#E1-MJMATHI-79"
           x="0"
           y="0"
           id="use1326" />
        <g
           transform="translate(490,-150)"
           id="g1334">
          <use
             height="100%"
             width="100%"
             transform="scale(0.707)"
             xlink:href="#E1-MJMATHI-6E"
             x="0"
             y="0"
             id="use1328" />
          <use
             height="100%"
             width="100%"
             transform="scale(0.707)"
             xlink:href="#E1-MJMAIN-2B"
             x="600"
             y="0"
             id="use1330" />
          <use
             height="100%"
             width="100%"
             transform="scale(0.707)"
             xlink:href="#E1-MJMAIN-31"
             x="1379"
             y="0"
             id="use1332" />
        </g>
        <use
           height="100%"
           width="100%"
           xlink:href="#E1-MJMAIN-3D"
           x="2197"
           y="0"
           id="use1336" />
        <g
           transform="translate(3253)"
           id="g1342">
          <use
             height="100%"
             width="100%"
             xlink:href="#E1-MJMATHI-79"
             x="0"
             y="0"
             id="use1338" />
          <use
             height="100%"
             width="100%"
             transform="scale(0.707)"
             xlink:href="#E1-MJMATHI-6E"
             x="693"
             y="-213"
             id="use1340" />
        </g>
        <use
           height="100%"
           width="100%"
           xlink:href="#E1-MJMAIN-2B"
           x="4490"
           y="0"
           id="use1344" />
        <use
           height="100%"
           width="100%"
           xlink:href="#E1-MJMATHI-68"
           x="5491"
           y="0"
           id="use1346" />
        <g
           transform="translate(6234)"
           id="g1360">
          <use
             height="100%"
             width="100%"
             xlink:href="#E1-MJSZ2-2211"
             x="0"
             y="0"
             id="use1348" />
          <g
             transform="translate(124,-1090)"
             id="g1356">
            <use
               height="100%"
               width="100%"
               transform="scale(0.707)"
               xlink:href="#E1-MJMATHI-6A"
               x="0"
               y="0"
               id="use1350" />
            <use
               height="100%"
               width="100%"
               transform="scale(0.707)"
               xlink:href="#E1-MJMAIN-3D"
               x="412"
               y="0"
               id="use1352" />
            <use
               height="100%"
               width="100%"
               transform="scale(0.707)"
               xlink:href="#E1-MJMAIN-31"
               x="1191"
               y="0"
               id="use1354" />
          </g>
          <use
             height="100%"
             width="100%"
             transform="scale(0.707)"
             xlink:href="#E1-MJMATHI-73"
             x="786"
             y="1627"
             id="use1358" />
        </g>
        <g
           transform="translate(7845)"
           id="g1366">
          <use
             height="100%"
             width="100%"
             xlink:href="#E1-MJMATHI-62"
             x="0"
             y="0"
             id="use1362" />
          <use
             height="100%"
             width="100%"
             transform="scale(0.707)"
             xlink:href="#E1-MJMATHI-6A"
             x="607"
             y="-213"
             id="use1364" />
        </g>
        <g
           transform="translate(8667)"
           id="g1372">
          <use
             height="100%"
             width="100%"
             xlink:href="#E1-MJMATHI-6B"
             x="0"
             y="0"
             id="use1368" />
          <use
             height="100%"
             width="100%"
             transform="scale(0.707)"
             xlink:href="#E1-MJMATHI-6A"
             x="737"
             y="-213"
             id="use1370" />
        </g>
        <use
           height="100%"
           width="100%"
           xlink:href="#E1-MJMAIN-2E"
           x="9580"
           y="0"
           id="use1374" />
      </g>
      <text
         xml:space="preserve"
         style="font-style:normal;font-weight:normal;font-size:1.7631948px;line-height:1.25;font-family:sans-serif;letter-spacing:0px;word-spacing:0px;fill:#000000;fill-opacity:1;stroke:none;stroke-width:0.22039935"
         x="14.325666"
         y="261.54874"
         id="text1116"
         transform="scale(1.0004822,0.99951804)"><tspan
           sodipodi:role="line"
           id="tspan1114"
           x="14.325666"
           y="261.54874"
           style="font-style:normal;font-variant:normal;font-weight:bold;font-stretch:normal;font-size:5.87731552px;font-family:Arial;-inkscape-font-specification:'Arial Bold';stroke-width:0.22039935">Numerics</tspan></text>
    </g>
  </g>
</svg>
