<?xml version="1.0" encoding="UTF-8" standalone="no"?>
<!-- Created with Inkscape (http://www.inkscape.org/) -->

<svg
   xmlns:ns0="http://www.iki.fi/pav/software/textext/"
   xmlns:dc="http://purl.org/dc/elements/1.1/"
   xmlns:cc="http://creativecommons.org/ns#"
   xmlns:rdf="http://www.w3.org/1999/02/22-rdf-syntax-ns#"
   xmlns:svg="http://www.w3.org/2000/svg"
   xmlns="http://www.w3.org/2000/svg"
   xmlns:xlink="http://www.w3.org/1999/xlink"
   xmlns:sodipodi="http://sodipodi.sourceforge.net/DTD/sodipodi-0.dtd"
   xmlns:inkscape="http://www.inkscape.org/namespaces/inkscape"
   width="59.994698mm"
   height="60.052563mm"
   viewBox="0 0 59.994698 60.052563"
   version="1.1"
   id="svg8"
   inkscape:version="0.92.4 (5da689c313, 2019-01-14)"
   sodipodi:docname="control.svg">
  <defs
     id="defs2">
    <marker
       inkscape:isstock="true"
       style="overflow:visible"
       id="marker4379"
       refX="0"
       refY="0"
       orient="auto"
       inkscape:stockid="Arrow2Mend">
      <path
         transform="scale(-0.6)"
         d="M 8.7185878,4.0337352 -2.2072895,0.01601326 8.7185884,-4.0017078 c -1.7454984,2.3720609 -1.7354408,5.6174519 -6e-7,8.035443 z"
         style="fill:#000000;fill-opacity:1;fill-rule:evenodd;stroke:#000000;stroke-width:0.625;stroke-linejoin:round;stroke-opacity:1"
         id="path4377"
         inkscape:connector-curvature="0" />
    </marker>
    <marker
       inkscape:stockid="TriangleInM"
       orient="auto"
       refY="0"
       refX="0"
       id="TriangleInM"
       style="overflow:visible"
       inkscape:isstock="true">
      <path
         id="path963"
         d="M 5.77,0 -2.88,5 V -5 Z"
         style="fill:#000000;fill-opacity:1;fill-rule:evenodd;stroke:#000000;stroke-width:1.00000003pt;stroke-opacity:1"
         transform="scale(-0.4)"
         inkscape:connector-curvature="0" />
    </marker>
    <marker
       inkscape:stockid="Arrow2Lend"
       orient="auto"
       refY="0"
       refX="0"
       id="marker1501"
       style="overflow:visible"
       inkscape:isstock="true">
      <path
         id="path1499"
         style="fill:#000000;fill-opacity:1;fill-rule:evenodd;stroke:#000000;stroke-width:0.625;stroke-linejoin:round;stroke-opacity:1"
         d="M 8.7185878,4.0337352 -2.2072895,0.01601326 8.7185884,-4.0017078 c -1.7454984,2.3720609 -1.7354408,5.6174519 -6e-7,8.035443 z"
         transform="matrix(-1.1,0,0,-1.1,-1.1,0)"
         inkscape:connector-curvature="0" />
    </marker>
    <marker
       inkscape:stockid="EmptyTriangleOutL"
       orient="auto"
       refY="0"
       refX="0"
       id="EmptyTriangleOutL"
       style="overflow:visible"
       inkscape:isstock="true">
      <path
         id="path987"
         d="M 5.77,0 -2.88,5 V -5 Z"
         style="fill:#ffffff;fill-rule:evenodd;stroke:#000000;stroke-width:1.00000003pt;stroke-opacity:1"
         transform="matrix(0.8,0,0,0.8,-4.8,0)"
         inkscape:connector-curvature="0" />
    </marker>
    <marker
       inkscape:stockid="TriangleOutL"
       orient="auto"
       refY="0"
       refX="0"
       id="TriangleOutL"
       style="overflow:visible"
       inkscape:isstock="true">
      <path
         id="path969"
         d="M 5.77,0 -2.88,5 V -5 Z"
         style="fill:#000000;fill-opacity:1;fill-rule:evenodd;stroke:#000000;stroke-width:1.00000003pt;stroke-opacity:1"
         transform="scale(0.8)"
         inkscape:connector-curvature="0" />
    </marker>
    <marker
       inkscape:stockid="Arrow2Mend"
       orient="auto"
       refY="0"
       refX="0"
       id="Arrow2Mend"
       style="overflow:visible"
       inkscape:isstock="true">
      <path
         id="path854"
         style="fill:#000000;fill-opacity:1;fill-rule:evenodd;stroke:#000000;stroke-width:0.625;stroke-linejoin:round;stroke-opacity:1"
         d="M 8.7185878,4.0337352 -2.2072895,0.01601326 8.7185884,-4.0017078 c -1.7454984,2.3720609 -1.7354408,5.6174519 -6e-7,8.035443 z"
         transform="scale(-0.6)"
         inkscape:connector-curvature="0" />
    </marker>
    <marker
       inkscape:stockid="Arrow1Mend"
       orient="auto"
       refY="0"
       refX="0"
       id="Arrow1Mend"
       style="overflow:visible"
       inkscape:isstock="true">
      <path
         id="path836"
         d="M 0,0 5,-5 -12.5,0 5,5 Z"
         style="fill:#000000;fill-opacity:1;fill-rule:evenodd;stroke:#000000;stroke-width:1.00000003pt;stroke-opacity:1"
         transform="matrix(-0.4,0,0,-0.4,-4,0)"
         inkscape:connector-curvature="0" />
    </marker>
    <marker
       inkscape:stockid="Arrow1Send"
       orient="auto"
       refY="0"
       refX="0"
       id="Arrow1Send"
       style="overflow:visible"
       inkscape:isstock="true">
      <path
         id="path842"
         d="M 0,0 5,-5 -12.5,0 5,5 Z"
         style="fill:#000000;fill-opacity:1;fill-rule:evenodd;stroke:#000000;stroke-width:1.00000003pt;stroke-opacity:1"
         transform="matrix(-0.2,0,0,-0.2,-1.2,0)"
         inkscape:connector-curvature="0" />
    </marker>
    <marker
       inkscape:stockid="Arrow2Lend"
       orient="auto"
       refY="0"
       refX="0"
       id="Arrow2Lend"
       style="overflow:visible"
       inkscape:isstock="true">
      <path
         id="path848"
         style="fill:#000000;fill-opacity:1;fill-rule:evenodd;stroke:#000000;stroke-width:0.625;stroke-linejoin:round;stroke-opacity:1"
         d="M 8.7185878,4.0337352 -2.2072895,0.01601326 8.7185884,-4.0017078 c -1.7454984,2.3720609 -1.7354408,5.6174519 -6e-7,8.035443 z"
         transform="matrix(-1.1,0,0,-1.1,-1.1,0)"
         inkscape:connector-curvature="0" />
    </marker>
    <marker
       inkscape:stockid="Arrow1Lend"
       orient="auto"
       refY="0"
       refX="0"
       id="Arrow1Lend"
       style="overflow:visible"
       inkscape:isstock="true">
      <path
         id="path830"
         d="M 0,0 5,-5 -12.5,0 5,5 Z"
         style="fill:#000000;fill-opacity:1;fill-rule:evenodd;stroke:#000000;stroke-width:1.00000003pt;stroke-opacity:1"
         transform="matrix(-0.8,0,0,-0.8,-10,0)"
         inkscape:connector-curvature="0" />
    </marker>
    <marker
       inkscape:stockid="Arrow2Lstart"
       orient="auto"
       refY="0"
       refX="0"
       id="Arrow2Lstart"
       style="overflow:visible"
       inkscape:isstock="true">
      <path
         id="path845"
         style="fill:#000000;fill-opacity:1;fill-rule:evenodd;stroke:#000000;stroke-width:0.625;stroke-linejoin:round;stroke-opacity:1"
         d="M 8.7185878,4.0337352 -2.2072895,0.01601326 8.7185884,-4.0017078 c -1.7454984,2.3720609 -1.7354408,5.6174519 -6e-7,8.035443 z"
         transform="matrix(1.1,0,0,1.1,1.1,0)"
         inkscape:connector-curvature="0" />
    </marker>
    <marker
       inkscape:stockid="Arrow2Mend"
       orient="auto"
       refY="0"
       refX="0"
       id="Arrow2Mend-0"
       style="overflow:visible"
       inkscape:isstock="true">
      <path
         inkscape:connector-curvature="0"
         id="path854-1"
         style="fill:#000000;fill-opacity:1;fill-rule:evenodd;stroke:#000000;stroke-width:0.625;stroke-linejoin:round;stroke-opacity:1"
         d="M 8.7185878,4.0337352 -2.2072895,0.01601326 8.7185884,-4.0017078 c -1.7454984,2.3720609 -1.7354408,5.6174519 -6e-7,8.035443 z"
         transform="scale(-0.6)" />
    </marker>
    <marker
       inkscape:stockid="Arrow2Mend"
       orient="auto"
       refY="0"
       refX="0"
       id="Arrow2Mend-0-8"
       style="overflow:visible"
       inkscape:isstock="true">
      <path
         inkscape:connector-curvature="0"
         id="path854-1-8"
         style="fill:#000000;fill-opacity:1;fill-rule:evenodd;stroke:#000000;stroke-width:0.625;stroke-linejoin:round;stroke-opacity:1"
         d="M 8.7185878,4.0337352 -2.2072895,0.01601326 8.7185884,-4.0017078 c -1.7454984,2.3720609 -1.7354408,5.6174519 -6e-7,8.035443 z"
         transform="scale(-0.6)" />
    </marker>
    <marker
       inkscape:stockid="Arrow2Mend"
       orient="auto"
       refY="0"
       refX="0"
       id="Arrow2Mend-0-3"
       style="overflow:visible"
       inkscape:isstock="true">
      <path
         inkscape:connector-curvature="0"
         id="path854-1-5"
         style="fill:#000000;fill-opacity:1;fill-rule:evenodd;stroke:#000000;stroke-width:0.625;stroke-linejoin:round;stroke-opacity:1"
         d="M 8.7185878,4.0337352 -2.2072895,0.01601326 8.7185884,-4.0017078 c -1.7454984,2.3720609 -1.7354408,5.6174519 -6e-7,8.035443 z"
         transform="scale(-0.6)" />
    </marker>
    <marker
       inkscape:stockid="Arrow2Mend"
       orient="auto"
       refY="0"
       refX="0"
       id="marker1431-3"
       style="overflow:visible"
       inkscape:isstock="true">
      <path
         inkscape:connector-curvature="0"
         id="path1429-8"
         style="fill:#000000;fill-opacity:1;fill-rule:evenodd;stroke:#000000;stroke-width:0.625;stroke-linejoin:round;stroke-opacity:1"
         d="M 8.7185878,4.0337352 -2.2072895,0.01601326 8.7185884,-4.0017078 c -1.7454984,2.3720609 -1.7354408,5.6174519 -6e-7,8.035443 z"
         transform="scale(-0.6)" />
    </marker>
    <marker
       inkscape:isstock="true"
       style="overflow:visible"
       id="marker4379-3"
       refX="0"
       refY="0"
       orient="auto"
       inkscape:stockid="Arrow2Mend">
      <path
         inkscape:connector-curvature="0"
         transform="scale(-0.6)"
         d="M 8.7185878,4.0337352 -2.2072895,0.01601326 8.7185884,-4.0017078 c -1.7454984,2.3720609 -1.7354408,5.6174519 -6e-7,8.035443 z"
         style="fill:#000000;fill-opacity:1;fill-rule:evenodd;stroke:#000000;stroke-width:0.625;stroke-linejoin:round;stroke-opacity:1"
         id="path4377-4" />
    </marker>
    <path
       d="M 400,0 Q 376,3 226,3 75,3 51,0 H 39 V 62 H 147 V 624 H 39 v 62 h 12 q 24,-3 175,-3 150,0 174,3 h 12 V 624 H 304 V 338 l 168,145 162,141 h -69 v 62 h 11 q 21,-3 152,-3 86,0 101,3 h 7 V 624 H 730 L 614,524 Q 507,432 497,422 q -1,0 1,-4 2,-4 16,-23 14,-19 39,-53 25,-34 74,-101 L 759,63 805,62 h 47 V 0 H 842 Q 830,3 701,3 550,3 526,0 h -13 v 62 h 36 q 35,0 35,1 -1,2 -98,133 -97,131 -98,132 L 304,256 V 62 H 412 V 0 Z"
       id="E1-MJMAINB-4B"
       inkscape:connector-curvature="0"
       style="stroke-width:1" />
    <path
       d="m 87,333 q -23,10 -23,29 0,21 20,29 5,2 364,2 h 359 q 1,-1 4,-3 3,-2 6,-4 3,-2 6,-5 3,-3 4,-7 1,-4 2,-11 0,-18 -22,-30 z m 0,-224 q -23,9 -23,30 0,20 22,29 3,1 362,1 h 359 l 5,-3 q 4,-3 6,-4 2,-1 5,-5 3,-4 4,-8 1,-4 2,-10 0,-21 -22,-30 z"
       id="E1-MJMAINB-3D"
       inkscape:connector-curvature="0"
       style="stroke-width:1" />
    <path
       d="M 394,0 Q 370,3 222,3 75,3 51,0 H 39 V 62 H 147 V 624 H 39 v 62 h 195 q 22,0 65,0 43,0 63,1 117,0 192,-18 75,-18 127,-76 35,-43 35,-96 0,-107 -148,-159 1,-1 4,-2 3,-1 5,-4 28,-15 46,-32 18,-17 27,-42 9,-25 12,-40 3,-15 6,-46 10,-74 21,-96 18,-36 59,-36 22,0 32,14 10,14 15,34 5,20 6,23 4,6 26,6 h 4 q 15,0 21,-4 6,-4 6,-21 -1,-14 -6,-29 -5,-15 -18,-33 -13,-18 -37,-29 -24,-11 -58,-12 -109,0 -159,23 -50,23 -69,75 -5,17 -5,81 0,2 0,10 0,8 1,16 0,95 -69,119 -14,5 -82,5 H 298 V 62 H 406 V 0 Z m -28,369 q 93,1 124,12 58,21 58,95 v 22 19 q 0,61 -35,83 -34,24 -121,24 H 358 298 V 369 Z"
       id="E1-MJMAINB-52"
       inkscape:connector-curvature="0"
       style="stroke-width:1" />
    <path
       d="m 119,221 q -23,9 -23,30 0,21 20,28 5,2 332,2 h 327 q 1,-1 4,-3 3,-2 6,-4 3,-2 6,-5 3,-3 4,-7 1,-4 2,-11 0,-21 -22,-30 z"
       id="E1-MJMAINB-2212"
       inkscape:connector-curvature="0"
       style="stroke-width:1" />
    <path
       d="M 481,0 294,3 Q 136,3 109,0 H 96 v 62 h 131 v 242 q 0,242 -2,242 Q 169,529 97,529 H 80 v 62 h 17 q 134,0 211,56 l 11,8 h 14 q 22,0 26,-11 2,-4 2,-293 V 62 H 494 V 0 Z"
       id="E1-MJMAINB-31"
       inkscape:connector-curvature="0"
       style="stroke-width:1" />
    <path
       d="m 720,510 q 0,-34 -16,-62 -16,-28 -39,-44 -23,-16 -46,-27 -23,-11 -39,-15 l -16,-3 19,-3 q 19,-3 49,-14 30,-11 58,-30 22,-20 35,-36 27,-41 27,-87 v -6 Q 752,160 741,125 698,18 547,2 543,1 288,0 H 39 V 62 H 147 V 624 H 39 v 62 h 225 145 q 93,0 133,-5 40,-5 82,-26 96,-48 96,-145 z m -157,3 q 0,40 -15,65 -15,25 -30,33 -15,8 -32,11 -7,2 -101,2 H 293 V 382 h 82 q 83,1 92,3 96,20 96,128 z m 27,-321 q 0,115 -85,137 -1,1 -2,1 l -105,1 H 293 V 62 h 98 9 44 q 52,0 84,13 32,13 52,56 10,24 10,61 z"
       id="E1-MJMAINB-42"
       inkscape:connector-curvature="0"
       style="stroke-width:1" />
    <path
       d="m 55,642 q 0,0 0,6 0,6 4,11 4,5 7,7 3,2 5,2 h 637 q 15,-8 15,-20 0,-12 -15,-20 H 409 V 15 Q 402,2 391,0 q -4,0 -7,1 -3,1 -5,2 -2,1 -4,3 -2,2 -2,3 0,1 -2,4 -2,3 -2,3 V 628 H 71 q -1,0 -4,2 -3,2 -8,7 z"
       id="E1-MJMAIN-22A4"
       inkscape:connector-curvature="0"
       style="stroke-width:1" />
    <path
       d="M 400,0 Q 376,3 226,3 75,3 51,0 H 39 V 62 H 147 V 624 H 39 v 62 h 214 q 182,0 217,-1 35,-1 66,-7 49,-10 85,-30 36,-20 54,-43 18,-23 30,-48 12,-25 13,-43 1,-18 3,-31 2,-13 -3,-32 -5,-19 -14,-42 -9,-23 -31,-47 -22,-24 -57,-40 -35,-16 -86,-29 -30,-5 -131,-6 H 304 V 62 H 412 V 0 Z m 153,475 q 0,79 -16,107 -16,28 -78,40 -8,1 -86,2 H 298 V 343 h 74 q 85,1 108,7 47,12 60,40 13,28 13,85 z"
       id="E1-MJMAINB-50"
       inkscape:connector-curvature="0"
       style="stroke-width:1" />
  </defs>
  <sodipodi:namedview
     id="base"
     pagecolor="#ffffff"
     bordercolor="#666666"
     borderopacity="1.0"
     inkscape:pageopacity="0.0"
     inkscape:pageshadow="2"
     inkscape:zoom="2"
     inkscape:cx="-55.95332"
     inkscape:cy="125.20543"
     inkscape:document-units="mm"
     inkscape:current-layer="g1110"
     showgrid="false"
     inkscape:window-width="1920"
     inkscape:window-height="1027"
     inkscape:window-x="-8"
     inkscape:window-y="-8"
     inkscape:window-maximized="1" />
  <metadata
     id="metadata5">
    <rdf:RDF>
      <cc:Work
         rdf:about="">
        <dc:format>image/svg+xml</dc:format>
        <dc:type
           rdf:resource="http://purl.org/dc/dcmitype/StillImage" />
        <dc:title />
      </cc:Work>
    </rdf:RDF>
  </metadata>
  <g
     inkscape:label="Ebene 1"
     inkscape:groupmode="layer"
     id="layer1"
     transform="translate(-3.309943,-236.94988)">
    <g
       id="g8529"
       transform="matrix(0.26458333,0,0,0.26458333,64.955208,241.04063)">
      <g
         transform="translate(0,-752.36218)"
         id="layer1-1"
         inkscape:label="Layer 1" />
      <g
         id="content-6"
         transform="matrix(2.0199698,0,0,-2.1207715,-731.62396,1269.4099)"
         xml:space="preserve"
         stroke-miterlimit="10.433"
         font-style="normal"
         font-variant="normal"
         font-weight="normal"
         font-stretch="normal"
         font-size-adjust="none"
         letter-spacing="normal"
         word-spacing="normal"
         ns0:text="$u = k_p (x_{ref}-x) + k_d (\\dot{x}_{ref}-\\dot{x})$"
         ns0:preamble="/home/matt/Dropbox/Writing/texTextPreamble.ini"
         style="font-style:normal;font-variant:normal;font-weight:normal;font-stretch:normal;letter-spacing:normal;word-spacing:normal;text-anchor:start;fill:none;stroke:#000000;stroke-width:0.48314846;stroke-linecap:butt;stroke-linejoin:miter;stroke-miterlimit:10.43299961;stroke-dasharray:none;stroke-dashoffset:0;stroke-opacity:1" />    </g>
    <text
       xml:space="preserve"
       style="font-style:normal;font-weight:normal;font-size:10.58333302px;line-height:1.25;font-family:sans-serif;letter-spacing:0px;word-spacing:0px;fill:#000000;fill-opacity:1;stroke:none;stroke-width:0.26458332"
       x="32.132477"
       y="280.30234"
       id="text8630"><tspan
         sodipodi:role="line"
         id="tspan8628"
         x="32.132477"
         y="289.66611"
         style="font-size:3.52777767px;stroke-width:0.26458332" /><tspan
         sodipodi:role="line"
         x="32.132477"
         y="302.89526"
         style="font-size:3.52777767px;stroke-width:0.26458332"
         id="tspan8632" /></text>
    <g
       id="g1110"
       transform="matrix(1.1998939,0,0,1.2010512,-0.65845588,-59.709785)">
      <rect
         rx="7.9207935"
         ry="7.9207926"
         y="247.24754"
         x="3.5548162"
         height="49.504951"
         width="49.504951"
         id="rect815"
         style="opacity:1;fill:none;fill-opacity:1;stroke:#000000;stroke-width:0.49504945;stroke-linecap:butt;stroke-linejoin:round;stroke-miterlimit:0.60000002;stroke-dasharray:none;stroke-opacity:1;paint-order:fill markers stroke" />
      <text
         transform="scale(1.0308254,0.9700964)"
         id="text819"
         y="264.55777"
         x="13.82434"
         style="font-style:normal;font-weight:normal;font-size:8.66854px;line-height:1.25;font-family:sans-serif;letter-spacing:0px;word-spacing:0px;fill:#000000;fill-opacity:1;stroke:none;stroke-width:0.23289819;stroke-miterlimit:0.60000002;stroke-dasharray:none"
         xml:space="preserve"><tspan
           style="font-style:normal;font-variant:normal;font-weight:bold;font-stretch:normal;font-size:5.877316px;font-family:Arial;-inkscape-font-specification:'Arial Bold';stroke-width:0.23289819;stroke-miterlimit:0.60000002;stroke-dasharray:none"
           y="264.55777"
           x="13.82434"
           id="tspan817"
           sodipodi:role="line">3. Control</tspan></text>
      <rect
         y="264.01297"
         x="29.677576"
         height="7.1891494"
         width="9.7814856"
         id="rect821"
         style="opacity:1;fill:none;fill-opacity:0;stroke:#000000;stroke-width:0.30962291;stroke-linecap:butt;stroke-linejoin:round;stroke-miterlimit:0.60000002;stroke-dasharray:none;stroke-opacity:1;paint-order:fill markers stroke" />
      <path
         inkscape:connector-curvature="0"
         id="path825-7"
         d="m 39.431756,267.69717 c 4.76575,0 4.76575,0 4.76575,0"
         style="fill:none;stroke:#000000;stroke-width:0.23477316;stroke-linecap:butt;stroke-linejoin:miter;stroke-miterlimit:4;stroke-dasharray:none;stroke-opacity:1;marker-end:url(#Arrow2Mend-0)" />
      <text
         transform="scale(1.0004759,0.99952432)"
         id="text1980"
         y="269.07211"
         x="30.152468"
         style="font-style:normal;font-weight:normal;font-size:5.80030155px;line-height:0;font-family:sans-serif;letter-spacing:0px;word-spacing:0px;fill:#000000;fill-opacity:1;stroke:none;stroke-width:0.36251885"
         xml:space="preserve"><tspan
           style="font-style:normal;font-variant:normal;font-weight:normal;font-stretch:normal;font-size:4.83358526px;line-height:0;font-family:'Cambria Math';-inkscape-font-specification:'Cambria Math';stroke-width:0.36251885"
           y="269.07211"
           x="30.152468"
           id="tspan1978"
           sodipodi:role="line">G(s)</tspan></text>
      <text
         transform="scale(1.0004759,0.99952432)"
         id="text1984"
         y="269.30173"
         x="21.997282"
         style="font-style:normal;font-weight:normal;font-size:4.93888903px;line-height:1.25;font-family:sans-serif;letter-spacing:0px;word-spacing:0px;fill:#000000;fill-opacity:1;stroke:none;stroke-width:0.36251885"
         xml:space="preserve"><tspan
           style="font-style:normal;font-variant:normal;font-weight:normal;font-stretch:normal;font-size:4.93888903px;font-family:'Cambria Math';-inkscape-font-specification:'Cambria Math';fill:#000000;fill-opacity:1;stroke-width:0.36251885"
           y="269.30173"
           x="21.997282"
           id="tspan1982"
           sodipodi:role="line">?</tspan></text>
      <text
         transform="scale(1.0004759,0.99952432)"
         id="text1988"
         y="268.64954"
         x="45.341724"
         style="font-style:normal;font-weight:normal;font-size:14.50075817px;line-height:1.25;font-family:sans-serif;letter-spacing:0px;word-spacing:0px;fill:#000000;fill-opacity:1;stroke:none;stroke-width:0.36251885"
         xml:space="preserve"><tspan
           style="font-style:normal;font-variant:normal;font-weight:normal;font-stretch:normal;font-size:4.83358526px;font-family:'Cambria Math';-inkscape-font-specification:'Cambria Math';stroke-width:0.36251885"
           y="268.64954"
           x="45.341724"
           id="tspan1986"
           sodipodi:role="line">y</tspan></text>
      <path
         inkscape:connector-curvature="0"
         id="path825-7-0"
         d="m 24.510087,267.7417 c 4.765755,0 4.765755,0 4.765755,0"
         style="fill:none;stroke:#000000;stroke-width:0.23477317;stroke-linecap:butt;stroke-linejoin:miter;stroke-miterlimit:4;stroke-dasharray:none;stroke-opacity:1;marker-end:url(#Arrow2Mend-0-3)" />
      <path
         inkscape:connector-curvature="0"
         id="path4369"
         d="m 13.134692,287.00028 c 0,-20.4797 0,-20.48043 0,-20.48043"
         style="fill:none;stroke:#000000;stroke-width:0.31805399px;stroke-linecap:butt;stroke-linejoin:miter;stroke-opacity:1;marker-end:url(#marker4379)" />
      <path
         sodipodi:nodetypes="cc"
         inkscape:connector-curvature="0"
         id="path4369-2"
         d="m 12.965395,286.85073 32.857935,0.0384"
         style="fill:none;stroke:#000000;stroke-width:0.31805399px;stroke-linecap:butt;stroke-linejoin:miter;stroke-opacity:1;marker-end:url(#marker4379-3)" />
      <g
         style="stroke:#000000;stroke-opacity:1"
         transform="matrix(0.46642264,0,0,0.55210317,126.98559,112.60304)"
         id="g8273">
        <g
           style="stroke:#000000;stroke-opacity:1"
           inkscape:label="Layer 1"
           id="layer1-9"
           transform="translate(0,-752.36218)" />
        <g
           style="stroke:#000000;stroke-opacity:1"
           id="g4322"
           transform="matrix(1.2014387,0,0,0.76316221,44.832069,40.164973)">
          <path
             sodipodi:nodetypes="cssssscssssccscscscc"
             id="path4310"
             d="m -240.18658,323.3413 c 1.48616,4.28672 2.3067,7.82605 3.24137,13.33947 0.93464,5.51343 1.86931,11.58187 2.80397,16.74746 0.93465,5.16559 1.8693,9.42879 2.80397,12.33005 0.93465,2.90126 1.51959,4.32937 2.45424,4.82099 0.93466,0.49163 2.21902,0.0697 3.15368,-0.96126 0.93466,-1.03089 1.86933,-2.52414 2.80397,-3.97866 0.93465,-1.45453 1.86932,-2.86543 2.80398,-3.9692 0.93464,-1.10378 1.8693,-1.90317 2.80395,-2.37109 0.93466,-0.46789 1.86931,-0.61018 2.80397,-0.5406 0.93467,0.0696 1.86931,0.3458 2.80397,0.68305 0.93465,0.33725 1.86932,0.73278 2.80397,1.08189 0.93465,0.34914 1.8693,0.65154 2.80397,0.86708 0.93465,0.21554 1.86931,0.34538 2.80398,0.40096 0.93463,0.0555 1.86929,0.0384 2.80395,-0.0164 0.93467,-0.0547 1.86931,-0.14585 2.80397,-0.23925 0.93466,-0.0934 1.86932,-0.18863 2.80396,-0.26584 0.93466,-0.0772 1.86931,-0.13647 2.80398,-0.17377 0.93465,-0.0373 1.86931,-0.0529 2.80397,-0.0534 0.93465,-3.5e-4 1.8693,0.0141 2.80396,0.0342"
             style="fill:none;stroke:#000000;stroke-width:0.81332016;stroke-linecap:round;stroke-miterlimit:4;stroke-dasharray:none;stroke-dashoffset:0;stroke-opacity:1"
             inkscape:connector-curvature="0" />
        </g>
      </g>
      <g
         style="fill:currentColor;stroke:currentColor;stroke-width:0"
         transform="matrix(0.00254113,0,0,-0.00335651,23.301857,280.09085)"
         aria-hidden="true"
         id="g1177">
        <use
           height="100%"
           width="100%"
           xlink:href="#E1-MJMAINB-4B"
           x="0"
           y="0"
           id="use1155" />
        <use
           height="100%"
           width="100%"
           xlink:href="#E1-MJMAINB-3D"
           x="1179"
           y="0"
           id="use1157" />
        <g
           transform="translate(2351)"
           id="g1167">
          <use
             height="100%"
             width="100%"
             xlink:href="#E1-MJMAINB-52"
             x="0"
             y="0"
             id="use1159" />
          <g
             transform="translate(862,412)"
             id="g1165">
            <use
               height="100%"
               width="100%"
               transform="scale(0.707)"
               xlink:href="#E1-MJMAINB-2212"
               x="0"
               y="0"
               id="use1161" />
            <use
               height="100%"
               width="100%"
               transform="scale(0.707)"
               xlink:href="#E1-MJMAINB-31"
               x="894"
               y="0"
               id="use1163" />
          </g>
        </g>
        <g
           transform="translate(4353)"
           id="g1173">
          <use
             height="100%"
             width="100%"
             xlink:href="#E1-MJMAINB-42"
             x="0"
             y="0"
             id="use1169" />
          <use
             height="100%"
             width="100%"
             transform="scale(0.707)"
             xlink:href="#E1-MJMAIN-22A4"
             x="1157"
             y="583"
             id="use1171" />
        </g>
        <use
           height="100%"
           width="100%"
           xlink:href="#E1-MJMAINB-50"
           x="5822"
           y="0"
           id="use1175" />
      </g>
    </g>
  </g>
</svg>
